<svg width="96" height="96" viewBox="0 0 96 96" fill="none" xmlns="http://www.w3.org/2000/svg">
<g filter="url(#filter0_i_88_1237)">
<path d="M35.3779 30.7966C37.3427 29.4311 40.8913 31.1595 43.3037 34.6569C43.9781 35.6346 44.4919 36.6473 44.8398 37.6286C56.8521 40.0084 65.9109 50.6417 65.9111 63.4001C65.9111 77.9087 54.1968 89.6706 39.7461 89.6706C25.2953 89.6706 13.5801 77.9087 13.5801 63.4001C13.5803 52.5368 20.1484 43.2136 29.5146 39.2145C28.9028 37.8868 28.8777 36.6278 29.5771 35.9255C30.6416 34.8568 32.9889 35.4727 34.9072 37.2878C33.728 34.5118 33.8409 31.8653 35.3779 30.7966Z" fill="url(#paint0_linear_88_1237)"/>
</g>
<path d="M24.9697 61.063C27.641 61.063 29.8765 62.4767 30.4629 64.3745C34.355 64.8865 37.6693 65.8886 39.9199 67.1978C41.2461 67.7996 42.2012 68.6429 42.6436 69.7017C42.9165 70.1966 43.0614 70.7099 43.0615 71.2368C43.0615 71.9436 42.8014 72.6262 42.3193 73.272C40.7797 76.2144 36.3908 79.1579 30.7793 80.6675C23.1402 82.7226 16.1353 81.3458 15.1338 77.5933C15.1215 77.5473 15.1109 77.5009 15.1006 77.4546C9.7031 76.1902 6.08887 73.8793 6.08887 71.2368C6.08937 67.9265 11.7618 65.1379 19.5068 64.2749C20.1392 62.4272 22.3452 61.0631 24.9697 61.063Z" fill="url(#paint1_linear_88_1237)"/>
<ellipse cx="25.4987" cy="66.0415" rx="1.22626" ry="1.23117" fill="#E08B1A"/>
<path d="M31.1666 76.2462C25.6685 78.1525 18.4438 77.9 15.0888 77.4509C15.2359 78.1327 15.5868 78.6554 15.9037 79.0076C22.2741 80.3285 27.9978 78.4775 31.3821 76.6423C31.6497 76.4972 31.4542 76.1465 31.1666 76.2462Z" fill="#CA7504"/>
<path d="M35.2934 58.3141C35.749 58.5771 35.905 59.1596 35.642 59.6151C35.379 60.0706 34.7966 60.2267 34.3411 59.9637L30.2171 57.5827C29.7616 57.3197 29.6055 56.7373 29.8685 56.2817C30.1315 55.8262 30.714 55.6702 31.1695 55.9331L35.2934 58.3141Z" fill="#2E2E2E"/>
<path d="M13.5508 58.3141C13.0953 58.5771 12.9392 59.1596 13.2022 59.6151C13.4652 60.0706 14.0477 60.2267 14.5032 59.9637L18.6271 57.5827C19.0826 57.3197 19.2387 56.7373 18.9757 56.2817C18.7127 55.8262 18.1302 55.6702 17.6747 55.9331L13.5508 58.3141Z" fill="#2E2E2E"/>
<path d="M91.2292 17.2864C93.689 18.7066 94.5317 21.8519 93.1116 24.3117L84.8571 38.6089C83.437 41.0686 80.2916 41.9114 77.8318 40.4913L69.9062 35.9154L62.8731 37.8113L60.9985 30.7725L53.0883 26.2056C50.6285 24.7854 49.7857 21.6401 51.2058 19.1803L59.4603 4.88314C60.8805 2.42335 64.0258 1.58056 66.4856 3.00072L91.2292 17.2864Z" fill="#8831F9"/>
<path d="M70.2109 16.0499C69.8052 16.0414 69.5039 15.8508 69.8393 15.6198C70.5331 15.1419 72.1968 15.9939 73.1045 16.4749C78.8586 19.5238 72.6557 22.6884 69.0939 21.9447C67.283 21.5666 64.0479 20.4008 63.6756 18.5768C63.1438 15.9717 65.8243 14.248 68.5664 13.9986C70.4812 13.8244 74.7743 14.1706 76.4171 16.3752C77.7419 18.1532 76.4309 19.8549 74.8657 20.2705C73.5702 20.6145 71.2148 20.2935 69.7178 19.1189C68.2343 17.9549 69.9422 17.214 70.9647 17.2277C76.2204 17.2982 78.2263 22.8457 74.1008 23.5418C72.7888 23.7632 70.2463 23.3154 68.9134 22.056C67.0161 20.2635 70.5615 19.4923 71.7666 19.4633C74.121 19.4067 78.5377 20.4417 80.2983 22.8081C81.8892 24.9465 80.6256 27.188 79.1293 28.1219C78.1326 28.7439 75.9747 28.9991 74.3532 27.7359C72.7427 26.4814 73.7529 25.0479 74.6823 24.5483C75.5601 24.0764 78.2086 23.7597 79.3899 25.2541C80.5066 26.6666 78.8867 28.1436 77.7408 28.4461C76.4019 28.7995 73.7661 28.1718 72.5803 26.7123C71.1611 24.9655 72.4004 23.0642 73.4403 22.2023C74.0955 21.6594 76.8051 20.8033 77.7619 22.6373C78.7966 24.6207 76.5554 26.5957 75.3162 27.4774C74.4599 28.0866 72.5614 29.1156 70.7687 28.0379C69.2996 27.1548 70.3241 25.5143 70.72 24.9676C71.2431 24.2452 72.2866 22.9216 73.6917 23.0422C74.0558 23.0734 71.4489 25.3009 71.1789 25.4481C69.5619 26.3296 67.3783 27.6366 65.1977 27.8877C64.3383 27.9866 65.801 26.6798 66.262 26.1786C67.4874 24.8461 69.0921 23.8505 70.5492 22.713" stroke="white" stroke-width="0.75" stroke-linecap="round"/>
<defs>
<filter id="filter0_i_88_1237" x="12.5801" y="28.3292" width="53.3311" height="61.3414" filterUnits="userSpaceOnUse" color-interpolation-filters="sRGB">
<feFlood flood-opacity="0" result="BackgroundImageFix"/>
<feBlend mode="normal" in="SourceGraphic" in2="BackgroundImageFix" result="shape"/>
<feColorMatrix in="SourceAlpha" type="matrix" values="0 0 0 0 0 0 0 0 0 0 0 0 0 0 0 0 0 0 127 0" result="hardAlpha"/>
<feOffset dx="-1" dy="-2"/>
<feGaussianBlur stdDeviation="2"/>
<feComposite in2="hardAlpha" operator="arithmetic" k2="-1" k3="1"/>
<feColorMatrix type="matrix" values="0 0 0 0 0 0 0 0 0 0 0 0 0 0 0 0 0 0 0.12 0"/>
<feBlend mode="normal" in2="shape" result="effect1_innerShadow_88_1237"/>
</filter>
<linearGradient id="paint0_linear_88_1237" x1="29.6222" y1="34.5064" x2="54.2592" y2="89.5975" gradientUnits="userSpaceOnUse">
<stop stop-color="#FEF7E4"/>
<stop offset="1" stop-color="#FFF3D2"/>
</linearGradient>
<linearGradient id="paint1_linear_88_1237" x1="24.5752" y1="61.063" x2="24.5752" y2="81.621" gradientUnits="userSpaceOnUse">
<stop stop-color="#FFB34E"/>
<stop offset="1" stop-color="#DB8818"/>
</linearGradient>
</defs>
</svg>
