<svg xmlns="http://www.w3.org/2000/svg" width="20" height="20" viewBox="0 0 20 20" fill="none">
  <path d="M14.0936 10.469C14.1147 12.739 16.085 13.4944 16.1068 13.504C16.0901 13.5573 15.792 14.5805 15.0688 15.6374C14.4435 16.5512 13.7947 17.4616 12.7725 17.4805C11.7682 17.499 11.4452 16.8849 10.2969 16.8849C9.14897 16.8849 8.79015 17.4616 7.83939 17.499C6.85275 17.5364 6.10141 16.5109 5.47104 15.6005C4.18292 13.7382 3.19852 10.3381 4.52032 8.04296C5.17695 6.90319 6.35042 6.18144 7.6241 6.16293C8.59296 6.14445 9.50742 6.81475 10.0997 6.81475C10.6917 6.81475 11.8029 6.00866 12.9712 6.12704C13.4603 6.1474 14.8331 6.3246 15.7147 7.61495C15.6436 7.65898 14.0766 8.57125 14.0936 10.469ZM12.206 4.89498C12.7298 4.26092 13.0824 3.37825 12.9862 2.5C12.2311 2.53035 11.3181 3.00314 10.7766 3.63685C10.2912 4.19803 9.86614 5.09623 9.98083 5.9571C10.8224 6.02221 11.6822 5.52944 12.206 4.89498Z" fill="black"/>
</svg>