<svg xmlns="http://www.w3.org/2000/svg" width="80" height="40" viewBox="0 0 80 40" fill="none">
  <path d="M24.5368 7.66185C24.5363 7.66185 24.536 7.66145 24.5361 7.66103C24.5362 7.66061 24.5359 7.66021 24.5354 7.66021L22.6993 7.66016C22.6988 7.66016 22.6984 7.6605 22.6982 7.661C22.6981 7.6615 22.6977 7.66185 22.6972 7.66185H21.2432C21.0678 7.66185 20.9155 7.7828 20.8758 7.95368L16.8853 25.1307L12.7463 20.3201C13.9826 19.2182 14.9502 18.1969 15.8371 17.2025C16.7778 16.1813 16.9122 15.7244 17.2347 14.3538L17.8787 11.6107C17.9204 11.4331 17.7857 11.2631 17.6033 11.2631H13.0009L13.7424 8.12093C13.7961 7.8849 13.6167 7.66016 13.3746 7.66016H11.9812C11.9805 7.66016 11.9798 7.66066 11.9797 7.66136C11.9795 7.66207 11.9789 7.66257 11.9782 7.66257L11.4969 7.66257C11.4962 7.66257 11.4957 7.66198 11.4959 7.66136C11.496 7.66075 11.4956 7.66016 11.4949 7.66016H9.64714C9.47103 7.66016 9.31835 7.78202 9.27932 7.95375L8.49984 11.2631H4.5272C4.35126 11.2631 4.19869 11.3847 4.15948 11.5563L3.89079 12.7317L3.51594 14.2276C3.5159 14.2277 3.51603 14.2279 3.51621 14.2279C3.51639 14.2279 3.51653 14.2281 3.51648 14.2283L3.41094 14.6127C3.35767 14.8067 3.50369 14.9982 3.70492 14.9982H11.8331C8.69674 18.1081 4.03579 22.0251 0.644493 24.8568C0.523968 24.9574 0.479294 25.1214 0.530958 25.2697L0.802187 26.048C0.802259 26.0483 0.802198 26.0485 0.802033 26.0486C0.801822 26.0488 0.801788 26.0491 0.801957 26.0493L1.7743 27.3294L1.77452 27.3294L1.77474 27.3294L2.40447 28.1962C2.52805 28.3663 2.76634 28.403 2.93381 28.2759C4.91612 26.7712 7.50314 24.5854 9.4446 22.8995L13.8016 28.1203C13.9385 28.2844 14.1842 28.3021 14.3432 28.1593L15.253 27.3425L15.2513 27.3404L15.605 27.0171L15.6068 27.0193L16.6971 26.0176L15.2596 32.328C15.2058 32.5641 15.3852 32.789 15.6274 32.789H17.331C17.3313 32.789 17.3316 32.7887 17.3317 32.7884C17.3318 32.788 17.3321 32.7878 17.3325 32.7878H17.815C17.8153 32.7878 17.8156 32.7881 17.8155 32.7884C17.8154 32.7887 17.8157 32.789 17.816 32.789H19.4032C19.5775 32.789 19.729 32.6696 19.7699 32.5003L22.4522 21.3881H25.5885C25.7643 21.3881 25.9168 21.2666 25.9561 21.0953L26.3454 19.401C26.3456 19.4001 26.3449 19.3993 26.344 19.3993C26.3431 19.3993 26.3425 19.3985 26.3427 19.3976L26.4507 18.9167C26.4508 18.916 26.4514 18.9155 26.4521 18.9155C26.4528 18.9155 26.4534 18.9151 26.4535 18.9144L26.6044 18.1326C26.6494 17.8999 26.4711 17.684 26.2341 17.684H23.4005L25.3946 8.11598C25.4434 7.88175 25.2646 7.66185 25.0253 7.66185H24.5368Z" fill="white"/>
  <path d="M41.2132 18.7613C41.2125 18.7613 41.2119 18.7606 41.2121 18.76L41.3515 18.1606C41.4065 17.9241 41.2269 17.698 40.9841 17.698H33.0155L34.4516 11.3969H42.2355C42.4108 11.3969 42.563 11.2761 42.6028 11.1054L42.909 9.79323C42.91 9.78872 42.9066 9.7844 42.902 9.7844C42.8973 9.7844 42.8939 9.78003 42.895 9.77549L43.0109 9.30394C43.0114 9.30201 43.0131 9.30065 43.0151 9.30065C43.0171 9.30065 43.0189 9.29926 43.0193 9.29731L43.2868 8.15102C43.342 7.91444 43.1624 7.68814 42.9195 7.68814L30.7169 7.68814C30.5429 7.68814 30.3914 7.80724 30.3504 7.9764L27.9863 18.5311C27.9863 18.5311 27.8717 19.0764 27.9791 18.561L27.4837 20.9383C27.4278 21.1751 27.6075 21.4021 27.8508 21.4021H30.0031C30.0156 21.4022 30.0282 21.4023 30.0408 21.4023L40.3174 21.4021C40.4946 21.4021 40.6479 21.2787 40.6859 21.1057L40.9789 19.7689C40.9791 19.7681 40.9785 19.7674 40.9777 19.7674C40.9769 19.7674 40.9763 19.7666 40.9765 19.7659L41.2143 18.7627C41.2144 18.762 41.2139 18.7613 41.2132 18.7613Z" fill="white"/>
  <path d="M43.7384 20.9894C43.6862 21.2249 43.8655 21.4482 44.1067 21.4482H45.6129C45.6135 21.4482 45.614 21.4478 45.6141 21.4472C45.6142 21.4467 45.6148 21.4463 45.6154 21.4463H46.0971C46.0976 21.4463 46.098 21.4467 46.0979 21.4472C46.0978 21.4478 46.0982 21.4482 46.0987 21.4482H47.9175C48.0947 21.4482 48.248 21.325 48.2859 21.152L51.1475 8.11991C51.1991 7.88461 51.02 7.66185 50.779 7.66185H49.6232C49.6228 7.66185 49.6225 7.66211 49.6224 7.66248C49.6223 7.66285 49.622 7.66311 49.6216 7.66311L49.1391 7.6631C49.1388 7.6631 49.1386 7.66279 49.1386 7.66247C49.1387 7.66215 49.1385 7.66185 49.1381 7.66185H47.0266C46.8495 7.66185 46.6963 7.785 46.6582 7.95791L45.587 12.8219H40.8604C40.6851 12.8219 40.5329 12.9426 40.4931 13.1134L40.299 13.9453L40.2979 13.9453L40.2547 14.135L40.1848 14.4344H40.1865L40.0324 15.1108L39.8091 16.0678C39.7539 16.3044 39.9335 16.5307 40.1764 16.5307H44.727L43.7384 20.9894Z" fill="white"/>
  <path d="M47.3894 25.5607L45.8613 32.4942C45.8232 32.667 45.67 32.7902 45.493 32.7902H41.8186C41.5775 32.7902 41.3983 32.567 41.4503 32.3316L42.7349 26.5171H29.2484C29.0023 26.5171 28.8221 26.2853 28.8829 26.0468L29.6054 23.211C29.648 23.0439 29.7985 22.927 29.971 22.927H47.5143C47.7563 22.927 47.9357 23.1516 47.8822 23.3875L47.3894 25.5607Z" fill="white"/>
</svg>