<svg xmlns="http://www.w3.org/2000/svg" width="80" height="40" viewBox="0 0 80 40" fill="none">
  <path d="M24.5368 7.66172C24.5363 7.66172 24.536 7.66133 24.5361 7.66091C24.5362 7.66049 24.5359 7.66009 24.5354 7.66009L22.6993 7.66003C22.6988 7.66003 22.6984 7.66038 22.6982 7.66088C22.6981 7.66138 22.6977 7.66172 22.6972 7.66172H21.2432C21.0678 7.66172 20.9155 7.78267 20.8758 7.95355L16.8853 25.1306L12.7463 20.3199C13.9826 19.2181 14.9502 18.1968 15.8371 17.2024C16.7778 16.1812 16.9122 15.7243 17.2347 14.3536L17.8787 11.6105C17.9204 11.433 17.7857 11.263 17.6033 11.263H13.0009L13.7424 8.12081C13.7961 7.88478 13.6167 7.66003 13.3746 7.66003H11.9812C11.9805 7.66003 11.9798 7.66054 11.9797 7.66124C11.9795 7.66195 11.9789 7.66245 11.9782 7.66245L11.4969 7.66245C11.4962 7.66245 11.4957 7.66186 11.4959 7.66124C11.496 7.66062 11.4956 7.66003 11.4949 7.66003H9.64714C9.47103 7.66003 9.31835 7.7819 9.27932 7.95362L8.49984 11.263H4.5272C4.35126 11.263 4.19869 11.3846 4.15948 11.5561L3.89079 12.7316L3.51594 14.2274C3.5159 14.2276 3.51603 14.2278 3.51621 14.2278C3.51639 14.2278 3.51653 14.228 3.51648 14.2281L3.41094 14.6125C3.35767 14.8066 3.50369 14.9981 3.70492 14.9981H11.8331C8.69674 18.1079 4.03579 22.0249 0.644493 24.8566C0.523968 24.9573 0.479294 25.1213 0.530958 25.2695L0.802187 26.0479C0.802259 26.0481 0.802198 26.0484 0.802033 26.0485C0.801822 26.0487 0.801788 26.049 0.801957 26.0492L1.7743 27.3293L1.77452 27.3293L1.77474 27.3293L2.40447 28.196C2.52805 28.3661 2.76634 28.4029 2.93381 28.2758C4.91612 26.7711 7.50314 24.5853 9.4446 22.8994L13.8016 28.1202C13.9385 28.2843 14.1842 28.302 14.3432 28.1592L15.253 27.3424L15.2513 27.3403L15.605 27.0169L15.6068 27.0192L16.6971 26.0175L15.2596 32.3279C15.2058 32.564 15.3852 32.7888 15.6274 32.7888H17.331C17.3313 32.7888 17.3316 32.7886 17.3317 32.7882C17.3318 32.7879 17.3321 32.7876 17.3325 32.7876H17.815C17.8153 32.7876 17.8156 32.7879 17.8155 32.7882C17.8154 32.7885 17.8157 32.7888 17.816 32.7888H19.4032C19.5775 32.7888 19.729 32.6695 19.7699 32.5002L22.4522 21.3879H25.5885C25.7643 21.3879 25.9168 21.2665 25.9561 21.0952L26.3454 19.4009C26.3456 19.4 26.3449 19.3992 26.344 19.3992C26.3431 19.3992 26.3425 19.3983 26.3427 19.3975L26.4507 18.9166C26.4508 18.9159 26.4514 18.9154 26.4521 18.9154C26.4528 18.9154 26.4534 18.9149 26.4535 18.9143L26.6044 18.1325C26.6494 17.8998 26.4711 17.6838 26.2341 17.6838H23.4005L25.3946 8.11586C25.4434 7.88163 25.2646 7.66172 25.0253 7.66172H24.5368Z" fill="url(#paint0_linear_3_33)"/>
  <path d="M41.2132 18.7612C41.2125 18.7612 41.2119 18.7605 41.2121 18.7598L41.3515 18.1605C41.4065 17.924 41.2269 17.6979 40.9841 17.6979H33.0155L34.4516 11.3968H42.2355C42.4108 11.3968 42.563 11.276 42.6028 11.1053L42.909 9.7931C42.91 9.78859 42.9066 9.78428 42.902 9.78428C42.8973 9.78428 42.8939 9.7799 42.895 9.77537L43.0109 9.30382C43.0114 9.30188 43.0131 9.30053 43.0151 9.30053C43.0171 9.30053 43.0189 9.29914 43.0193 9.29719L43.2868 8.1509C43.342 7.91432 43.1624 7.68801 42.9195 7.68801L30.7169 7.68801C30.5429 7.68801 30.3914 7.80712 30.3504 7.97628L27.9863 18.531C27.9863 18.531 27.8717 19.0763 27.9791 18.5609L27.4837 20.9382C27.4278 21.175 27.6075 21.402 27.8508 21.402H30.0031C30.0156 21.4021 30.0282 21.4022 30.0408 21.4022L40.3174 21.402C40.4946 21.402 40.6479 21.2786 40.6859 21.1055L40.9789 19.7687C40.9791 19.768 40.9785 19.7673 40.9777 19.7673C40.9769 19.7673 40.9763 19.7665 40.9765 19.7657L41.2143 18.7626C41.2144 18.7619 41.2139 18.7612 41.2132 18.7612Z" fill="url(#paint1_linear_3_33)"/>
  <path d="M43.7384 20.9893C43.6862 21.2248 43.8655 21.4481 44.1067 21.4481H45.6129C45.6135 21.4481 45.614 21.4477 45.6141 21.4471C45.6142 21.4465 45.6148 21.4461 45.6154 21.4461H46.0971C46.0976 21.4461 46.098 21.4466 46.0979 21.4471C46.0978 21.4476 46.0982 21.4481 46.0987 21.4481H47.9175C48.0947 21.4481 48.248 21.3249 48.2859 21.1518L51.1475 8.11979C51.1991 7.88449 51.02 7.66172 50.779 7.66172H49.6232C49.6228 7.66172 49.6225 7.66199 49.6224 7.66236C49.6223 7.66273 49.622 7.66299 49.6216 7.66299L49.1391 7.66298C49.1388 7.66298 49.1386 7.66267 49.1386 7.66235C49.1387 7.66203 49.1385 7.66172 49.1381 7.66172H47.0266C46.8495 7.66172 46.6963 7.78487 46.6582 7.95778L45.587 12.8218H40.8604C40.6851 12.8218 40.5329 12.9425 40.4931 13.1132L40.299 13.9452L40.2979 13.9452L40.2547 14.1348L40.1848 14.4343H40.1865L40.0324 15.1107L39.8091 16.0677C39.7539 16.3042 39.9335 16.5305 40.1764 16.5305H44.727L43.7384 20.9893Z" fill="url(#paint2_linear_3_33)"/>
  <path d="M47.3894 25.5606L45.8613 32.494C45.8232 32.6669 45.67 32.79 45.493 32.79H41.8186C41.5775 32.79 41.3983 32.5669 41.4503 32.3315L42.7349 26.517H29.2484C29.0023 26.517 28.8221 26.2852 28.8829 26.0467L29.6054 23.2109C29.648 23.0438 29.7985 22.9268 29.971 22.9268H47.5143C47.7563 22.9268 47.9357 23.1514 47.8822 23.3874L47.3894 25.5606Z" fill="url(#paint3_linear_3_33)"/>
  <defs>
    <linearGradient id="paint0_linear_3_33" x1="25.8331" y1="7.66003" x2="25.8331" y2="32.79" gradientUnits="userSpaceOnUse">
      <stop stop-color="#A054FF"/>
      <stop offset="1" stop-color="#7825FF"/>
    </linearGradient>
    <linearGradient id="paint1_linear_3_33" x1="25.8331" y1="7.66003" x2="25.8331" y2="32.79" gradientUnits="userSpaceOnUse">
      <stop stop-color="#A054FF"/>
      <stop offset="1" stop-color="#7825FF"/>
    </linearGradient>
    <linearGradient id="paint2_linear_3_33" x1="25.8331" y1="7.66003" x2="25.8331" y2="32.79" gradientUnits="userSpaceOnUse">
      <stop stop-color="#A054FF"/>
      <stop offset="1" stop-color="#7825FF"/>
    </linearGradient>
    <linearGradient id="paint3_linear_3_33" x1="25.8331" y1="7.66003" x2="25.8331" y2="32.79" gradientUnits="userSpaceOnUse">
      <stop stop-color="#A054FF"/>
      <stop offset="1" stop-color="#7825FF"/>
    </linearGradient>
  </defs>
</svg>