<svg xmlns="http://www.w3.org/2000/svg" width="110" height="72" viewBox="0 0 110 72" fill="none">
  <ellipse cx="67.0515" cy="58.9498" rx="15.6379" ry="7.46394" fill="#3B0C76"/>
  <path fill-rule="evenodd" clip-rule="evenodd" d="M82.9512 12.8579C91.7322 21.6389 91.7322 35.8758 82.9512 44.6569L69.8801 57.7279C68.318 59.29 65.7854 59.29 64.2233 57.7279L51.1522 44.6569C42.3711 35.8758 42.3711 21.6389 51.1522 12.8579C59.9332 4.07683 74.1701 4.07683 82.9512 12.8579ZM67.0517 36.088C71.47 36.088 75.0517 32.5063 75.0517 28.088C75.0517 23.6697 71.47 20.088 67.0517 20.088C62.6334 20.088 59.0517 23.6697 59.0517 28.088C59.0517 32.5063 62.6334 36.088 67.0517 36.088Z" fill="url(#paint0_linear_50_1188)"/>
  <defs>
    <linearGradient id="paint0_linear_50_1188" x1="67.0517" y1="58.8995" x2="67.0517" y2="6.27209" gradientUnits="userSpaceOnUse">
      <stop stop-color="#6418C4"/>
      <stop offset="1" stop-color="#9B4CFF"/>
    </linearGradient>
  </defs>
</svg>