<svg xmlns="http://www.w3.org/2000/svg" width="24" height="24" viewBox="0 0 24 24" fill="none">
  <path d="M3.19189 18.6602H7.63201V20.3242C7.63201 20.8765 7.18429 21.3242 6.63201 21.3242H4.19189C3.63961 21.3242 3.19189 20.8765 3.19189 20.3242V18.6602Z" fill="#464B68"/>
  <path d="M16.5122 18.6602H20.9523V20.3242C20.9523 20.8765 20.5046 21.3242 19.9523 21.3242H17.5122C16.9599 21.3242 16.5122 20.8765 16.5122 20.3242V18.6602Z" fill="#464B68"/>
  <path d="M16.3193 2.67578C17.6757 2.67578 18.864 3.58582 19.2168 4.89551L20.1738 8.45117C20.2929 8.89324 20.4865 9.31207 20.7471 9.68848L21.3398 10.543C22.1502 11.7136 22.584 13.1036 22.584 14.5273V17.7754C22.584 18.88 21.6886 19.7754 20.584 19.7754H3.41602C2.31145 19.7754 1.41602 18.88 1.41602 17.7754V14.5273C1.41604 13.1035 1.85069 11.7136 2.66113 10.543L3.25293 9.68848C3.51352 9.31207 3.70714 8.89323 3.82617 8.45117L4.7832 4.89551C5.13594 3.58581 6.32427 2.67578 7.68066 2.67578H16.3193Z" fill="url(#paint0_linear_83_303)"/>
  <path d="M6.50024 5.87244C6.7007 4.95379 7.514 4.29883 8.45426 4.29883H15.7008C16.6429 4.29883 17.4572 4.95629 17.6558 5.87721L18.2433 8.60105C18.3776 9.22391 17.9029 9.81186 17.2657 9.81186H6.88236C6.24419 9.81186 5.7693 9.22218 5.90535 8.59867L6.50024 5.87244Z" fill="#CDDCFF"/>
  <circle cx="5.65214" cy="15.0852" r="1.37236" fill="white"/>
  <circle cx="18.4925" cy="15.0852" r="1.37236" fill="white"/>
  <rect x="9.59814" y="14.3496" width="4.80347" height="1.47134" rx="0.25" fill="#2A41B8"/>
  <defs>
    <linearGradient id="paint0_linear_83_303" x1="12" y1="2.67578" x2="12" y2="19.7754" gradientUnits="userSpaceOnUse">
      <stop stop-color="#6A93E9"/>
      <stop offset="1" stop-color="#455FFF"/>
    </linearGradient>
  </defs>
</svg>