<svg xmlns="http://www.w3.org/2000/svg" width="24" height="24" viewBox="0 0 24 24" fill="none">
  <ellipse cx="12" cy="20.1294" rx="5.62351" ry="2.68409" fill="#3B0C76"/>
  <path d="M6.28236 3.55483C9.4401 0.397089 14.5602 0.397089 17.7179 3.55483C20.8756 6.71256 20.8756 11.8327 17.7179 14.9904L13.4142 19.2931C12.6332 20.0742 11.3671 20.0742 10.5861 19.2931L6.28236 14.9904C3.12463 11.8326 3.12463 6.71256 6.28236 3.55483ZM12.0001 6.15541C10.4113 6.15541 9.12319 7.44352 9.12319 9.03236C9.12323 10.6212 10.4113 11.9093 12.0001 11.9093C13.5889 11.9093 14.877 10.6211 14.8771 9.03236C14.8771 7.44354 13.589 6.15545 12.0001 6.15541Z" fill="url(#paint0_linear_83_351)"/>
  <defs>
    <linearGradient id="paint0_linear_83_351" x1="12.0001" y1="19.8789" x2="12.0001" y2="1.18652" gradientUnits="userSpaceOnUse">
      <stop stop-color="#6418C4"/>
      <stop offset="1" stop-color="#9B4CFF"/>
    </linearGradient>
  </defs>
</svg>