<svg xmlns="http://www.w3.org/2000/svg" width="24" height="24" viewBox="0 0 24 24" fill="none">
  <path d="M16.123 13.9395C16.5373 13.9395 16.873 14.2752 16.873 14.6895V22.2835C16.873 22.8825 16.2056 23.2398 15.7071 22.9076L12.415 20.7137C12.1631 20.5459 11.835 20.5459 11.5831 20.7138L8.29298 22.9072C7.79456 23.2395 7.12695 22.8822 7.12695 22.2832V14.6895C7.12695 14.2752 7.46274 13.9395 7.87695 13.9395H16.123Z" fill="url(#paint0_linear_83_213)"/>
  <circle cx="8.87158" cy="8.87158" r="8.87158" transform="matrix(1 0 0 -1 3.12842 18.4873)" fill="url(#paint1_linear_83_213)"/>
  <circle cx="12.0001" cy="9.61531" r="5.75887" fill="#F49729"/>
  <defs>
    <linearGradient id="paint0_linear_83_213" x1="11.9999" y1="16.9872" x2="11.9999" y2="21.4262" gradientUnits="userSpaceOnUse">
      <stop stop-color="#007745"/>
      <stop offset="1" stop-color="#00A45F"/>
    </linearGradient>
    <linearGradient id="paint1_linear_83_213" x1="8.87158" y1="0" x2="8.87158" y2="17.7432" gradientUnits="userSpaceOnUse">
      <stop stop-color="#FFBA09"/>
      <stop offset="1" stop-color="#FFD27C"/>
    </linearGradient>
  </defs>
</svg>