<svg xmlns="http://www.w3.org/2000/svg" width="24" height="24" viewBox="0 0 24 24" fill="none">
  <path d="M20.1354 2C21.24 2 22.1354 2.89543 22.1354 4V10.6387C22.1354 11.1689 21.9253 11.6777 21.5505 12.0527L12.0534 21.5498C11.2724 22.3307 10.0063 22.3306 9.22527 21.5498L2.58562 14.9102C1.80481 14.1291 1.80477 12.863 2.58562 12.082L12.0827 2.58496C12.4577 2.21015 12.9665 2 13.4968 2H20.1354ZM18.196 4.25098C17.4038 4.25109 16.7615 4.89338 16.7614 5.68555C16.7614 6.47777 17.4038 7.12 18.196 7.12012C18.9883 7.12012 19.6305 6.47784 19.6305 5.68555C19.6305 4.8933 18.9882 4.25098 18.196 4.25098Z" fill="url(#paint0_linear_83_250)"/>
  <defs>
    <linearGradient id="paint0_linear_83_250" x1="12.4292" y1="1.4602" x2="12.4292" y2="21.5956" gradientUnits="userSpaceOnUse">
      <stop stop-color="#17C38F"/>
      <stop offset="1" stop-color="#10A376"/>
    </linearGradient>
  </defs>
</svg>